<?xml version="1.0" encoding="iso-8859-1"?>
<!-- Generator: Adobe Illustrator 19.0.0, SVG Export Plug-In . SVG Version: 6.00 Build 0)  -->
<svg version="1.1" id="Capa_1" xmlns="http://www.w3.org/2000/svg" xmlns:xlink="http://www.w3.org/1999/xlink" x="0px" y="0px"
	 viewBox="0 0 512 512" style="enable-background:new 0 0 512 512;" xml:space="preserve">
<g>
	<g>
		<g>
			<rect x="240" y="416" width="32" height="32"/>
			<path d="M416,0h-32v32h32c8.837,0,16,7.163,16,16v32h32V48C464,21.49,442.51,0,416,0z"/>
			<path d="M432,352h-48v32h48v80c0,8.837-7.163,16-16,16H96c-8.837,0-16-7.163-16-16v-80h224c35.346,0,64-28.654,64-64V64
				c0-35.346-28.654-64-64-64h-48v288h48c17.673,0,32,14.327,32,32c0,17.673-14.327,32-32,32H80V48c0-8.837,7.163-16,16-16h128V0H96
				C69.49,0,48,21.49,48,48v416c0,26.51,21.49,48,48,48h320c26.51,0,48-21.49,48-48V240h-32V352z M304,256h-16V32h16
				c17.673,0,32,14.327,32,32v200.592C326.281,258.947,315.239,255.983,304,256z"/>
			<rect x="160" y="80" width="64" height="32"/>
			<rect x="112" y="144" width="112" height="32"/>
			<rect x="112" y="208" width="112" height="32"/>
			<rect x="112" y="272" width="112" height="32"/>
			<rect x="432" y="112" width="32" height="32"/>
			<rect x="432" y="176" width="32" height="32"/>
		</g>
	</g>
</g>
<g>
</g>
<g>
</g>
<g>
</g>
<g>
</g>
<g>
</g>
<g>
</g>
<g>
</g>
<g>
</g>
<g>
</g>
<g>
</g>
<g>
</g>
<g>
</g>
<g>
</g>
<g>
</g>
<g>
</g>
</svg>
